{
	"asset":{
		"version":"2.0",
		"generator":"Created using the official Cinema 4D glTF Exporter 1.000x284978"
	},
	"scenes":[{
		"nodes":[0,
		1,
		2,
		3]
	}],
	"nodes":[{
		"name":"Camera",
		"camera":0,
		"translation":[-0.3299771547317505,
		1.9792953729629517,
		2.912024974822998],
		"rotation":[0.3140680491924286,
		-0.003951060585677624,
		-0.0013070498825982214,
		-0.9493913650512695],
		"scale":[1.0,
		1.0,
		1.0]
	},
	{
		"name":"PaintBrush1",
		"translation":[-0.46747228503227236,
		0.03356580436229706,
		-0.41761597990989687],
		"rotation":[0.0888921245932579,
		-0.08866739273071289,
		-0.7006228566169739,
		0.7023986577987671],
		"scale":[1.0,
		1.0,
		1.0],
		"children":[4,
		5]
	},
	{
		"name":"PaintBrush2",
		"translation":[-0.006287058349698782,
		0.03473322093486786,
		0.006946169771254063],
		"rotation":[0.0,
		0.0,
		0.706211268901825,
		-0.7080011963844299],
		"scale":[1.0,
		1.0,
		1.0],
		"children":[6,
		7]
	},
	{
		"name":"palette",
		"mesh":0
	},
	{
		"name":"pencil",
		"mesh":1,
		"translation":[-0.00025633571203798056,
		-0.1238066703081131,
		0.0001530983718112111],
		"rotation":[0.0,
		-8.517794776301915e-20,
		0.0,
		-1.0],
		"scale":[1.0,
		1.0,
		1.0]
	},
	{
		"name":"brush",
		"mesh":2,
		"translation":[0.00025633571203798056,
		0.1238066703081131,
		-0.0001530983718112111],
		"rotation":[0.0,
		-8.517794776301915e-20,
		0.0,
		-1.0],
		"scale":[1.0,
		1.0,
		1.0]
	},
	{
		"name":"pencil",
		"mesh":3,
		"translation":[-0.00025633571203798056,
		-0.1238066703081131,
		0.0001530983718112111],
		"rotation":[0.0,
		0.0,
		0.0,
		-1.0],
		"scale":[1.0,
		1.0,
		1.0]
	},
	{
		"name":"brush",
		"mesh":4,
		"translation":[0.00025633571203798056,
		0.1238066703081131,
		-0.0001530983718112111],
		"rotation":[0.0,
		0.0,
		0.0,
		-1.0],
		"scale":[1.0,
		1.0,
		1.0]
	}],
	"meshes":[{
		"name":"palette",
		"primitives":[{
			"attributes":{
				"POSITION":1,
				"NORMAL":2
			},
			"indices":0,
			"material":0
		}]
	},
	{
		"name":"pencil",
		"primitives":[{
			"attributes":{
				"POSITION":4,
				"NORMAL":5
			},
			"indices":3,
			"material":0
		}]
	},
	{
		"name":"brush",
		"primitives":[{
			"attributes":{
				"POSITION":7,
				"NORMAL":8
			},
			"indices":6,
			"material":0
		}]
	},
	{
		"name":"pencil",
		"primitives":[{
			"attributes":{
				"POSITION":10,
				"NORMAL":11
			},
			"indices":9,
			"material":0
		}]
	},
	{
		"name":"brush",
		"primitives":[{
			"attributes":{
				"POSITION":13,
				"NORMAL":14
			},
			"indices":12,
			"material":0
		}]
	}],
	"cameras":[{
		"type":"perspective",
		"perspective":{
			"znear":0.009999999776482582,
			"zfar":10000000000.0,
			"aspectRatio":1.7777777910232545,
			"yfov":0.5483348965644836
		}
	}],
	"accessors":[{
		"bufferView":0,
		"type":"SCALAR",
		"componentType":5123,
		"count":78126,
		"byteOffset":0,
		"min":[0],
		"max":[13242]
	},
	{
		"bufferView":1,
		"type":"VEC3",
		"componentType":5126,
		"count":13243,
		"byteOffset":0,
		"min":[-1.1139711141586304,
		0.0,
		-0.9949734210968018],
		"max":[0.9071393013000488,
		0.012999999336898327,
		1.1735583543777466]
	},
	{
		"bufferView":1,
		"type":"VEC3",
		"componentType":5126,
		"count":13243,
		"byteOffset":12,
		"min":[-0.9999974966049194,
		-0.018344474956393243,
		-0.9999997615814209],
		"max":[0.9999854564666748,
		1.0,
		0.9998135566711426]
	},
	{
		"bufferView":2,
		"type":"SCALAR",
		"componentType":5123,
		"count":4206,
		"byteOffset":0,
		"min":[0],
		"max":[863]
	},
	{
		"bufferView":3,
		"type":"VEC3",
		"componentType":5126,
		"count":864,
		"byteOffset":0,
		"min":[-0.029030488803982736,
		-1.5565119981765748,
		-0.029413241893053056],
		"max":[0.029030488803982736,
		0.18066169321537019,
		0.029413241893053056]
	},
	{
		"bufferView":3,
		"type":"VEC3",
		"componentType":5126,
		"count":864,
		"byteOffset":12,
		"min":[-0.9999942779541016,
		-1.0,
		-0.999994158744812],
		"max":[0.9999942779541016,
		1.0,
		0.999994158744812]
	},
	{
		"bufferView":4,
		"type":"SCALAR",
		"componentType":5123,
		"count":2160,
		"byteOffset":0,
		"min":[0],
		"max":[397]
	},
	{
		"bufferView":5,
		"type":"VEC3",
		"componentType":5126,
		"count":398,
		"byteOffset":0,
		"min":[-0.01775960437953472,
		-0.07459726184606552,
		-0.01718560792505741],
		"max":[0.01680549792945385,
		0.05732559785246849,
		0.01768987812101841]
	},
	{
		"bufferView":5,
		"type":"VEC3",
		"componentType":5126,
		"count":398,
		"byteOffset":12,
		"min":[-0.9994218945503235,
		-0.9996866583824158,
		-0.9981697201728821],
		"max":[0.9975309371948242,
		0.9979776740074158,
		0.9972994327545166]
	},
	{
		"bufferView":6,
		"type":"SCALAR",
		"componentType":5123,
		"count":4206,
		"byteOffset":0,
		"min":[0],
		"max":[863]
	},
	{
		"bufferView":7,
		"type":"VEC3",
		"componentType":5126,
		"count":864,
		"byteOffset":0,
		"min":[-0.029030488803982736,
		-1.5565119981765748,
		-0.029413241893053056],
		"max":[0.029030488803982736,
		0.18066169321537019,
		0.029413241893053056]
	},
	{
		"bufferView":7,
		"type":"VEC3",
		"componentType":5126,
		"count":864,
		"byteOffset":12,
		"min":[-0.9999942779541016,
		-1.0,
		-0.999994158744812],
		"max":[0.9999942779541016,
		1.0,
		0.999994158744812]
	},
	{
		"bufferView":8,
		"type":"SCALAR",
		"componentType":5123,
		"count":2160,
		"byteOffset":0,
		"min":[0],
		"max":[397]
	},
	{
		"bufferView":9,
		"type":"VEC3",
		"componentType":5126,
		"count":398,
		"byteOffset":0,
		"min":[-0.01775960437953472,
		-0.07459726184606552,
		-0.01718560792505741],
		"max":[0.01680549792945385,
		0.05732559785246849,
		0.01768987812101841]
	},
	{
		"bufferView":9,
		"type":"VEC3",
		"componentType":5126,
		"count":398,
		"byteOffset":12,
		"min":[-0.9994218945503235,
		-0.9996866583824158,
		-0.9981697201728821],
		"max":[0.9975309371948242,
		0.9979776740074158,
		0.9972994327545166]
	}],
	"bufferViews":[{
		"buffer":0,
		"byteOffset":0,
		"byteLength":156252,
		"target":34963
	},
	{
		"buffer":0,
		"byteOffset":156252,
		"byteLength":317832,
		"target":34962,
		"byteStride":24
	},
	{
		"buffer":1,
		"byteOffset":0,
		"byteLength":8412,
		"target":34963
	},
	{
		"buffer":1,
		"byteOffset":8412,
		"byteLength":20736,
		"target":34962,
		"byteStride":24
	},
	{
		"buffer":2,
		"byteOffset":0,
		"byteLength":4320,
		"target":34963
	},
	{
		"buffer":2,
		"byteOffset":4320,
		"byteLength":9552,
		"target":34962,
		"byteStride":24
	},
	{
		"buffer":3,
		"byteOffset":0,
		"byteLength":8412,
		"target":34963
	},
	{
		"buffer":3,
		"byteOffset":8412,
		"byteLength":20736,
		"target":34962,
		"byteStride":24
	},
	{
		"buffer":4,
		"byteOffset":0,
		"byteLength":4320,
		"target":34963
	},
	{
		"buffer":4,
		"byteOffset":4320,
		"byteLength":9552,
		"target":34962,
		"byteStride":24
	}],
	"buffers":[{
		"uri":"data:application/octet-stream;base64,",
		"byteLength":474084
	},
	{
		"uri":"data:application/octet-stream;base64,",
		"byteLength":29148
	},
	{
		"uri":"data:application/octet-stream;base64,",
		"byteLength":13872
	},
	{
		"uri":"data:application/octet-stream;base64,",
		"byteLength":29148
	},
	{
		"uri":"data:application/octet-stream;base64,",
		"byteLength":13872
	}],
	"materials":[{
		"pbrMetallicRoughness":{
			"baseColorFactor":[0.8571428571428572,
			0.8571428571428572,
			0.8571428571428572,
			1.0],
			"metallicFactor":1.0,
			"roughnessFactor":1.0
		},
		"emissiveFactor":[0.0,
		0.0,
		0.0],
		"alphaMode":"OPAQUE",
		"doubleSided":false,
		"name":"Mat"
	}]
}